<svg width="32.000000" height="32.000000" viewBox="0 0 32 32" fill="none" xmlns="http://www.w3.org/2000/svg" xmlns:xlink="http://www.w3.org/1999/xlink">
	<desc>
			Created with Pixso.
	</desc>
	<defs/>
	<path id="2" d="M32 16C32 18.55 31.4 20.96 30.33 23.11L17 23.11C19.46 19.75 22 15.69 22 11.55C22 6.22 17.93 1.73 12.41 0.4C13.56 0.13 14.76 0 16 0C24.83 0 32 7.16 32 16ZM18 11.55C18 7.13 13.97 3.55 9 3.55C2.34 3.55 0 11.11 0 16C0 24.83 7.16 32 16 32C20.73 32 24.99 29.93 27.92 26.66L9 26.66C9.35 26.26 9.72 25.85 10.09 25.43C13.61 21.51 18 16.62 18 11.55Z" fill="#7859CF" fill-opacity="1.000000" fill-rule="evenodd"/>
</svg>
