<svg viewBox="0 0 82 36" fill="none" xmlns="http://www.w3.org/2000/svg"><path d="M81.13 17.24h-4.2v4.6q-.37.17-.76.29-.87.27-1.81.27-1.27 0-2.28-.51l-.19-.1q-.53-.3-.94-.71-.43-.44-.74-1l-.08-.14q-.52-1.05-.52-2.35 0-1.66.76-2.81.24-.36.56-.67.33-.34.72-.58 1.15-.74 2.76-.74.95 0 1.8.3 1.26.45 2.28 1.58l3.02-2.74q-.36-.43-.77-.8-1.02-.92-2.35-1.48-1.87-.79-4.22-.79-2.56 0-4.62 1.01l-.21.11q-1.31.68-2.27 1.7-.6.63-1.06 1.4-.27.46-.48.94-.72 1.63-.72 3.57 0 1.95.72 3.58.21.48.48.93.49.82 1.13 1.49.93.96 2.18 1.63l.39.19q1.96.92 4.36.92h.14q1.81-.02 3.61-.55 1.87-.55 3.31-1.58v-6.96Z" fill="#333" fill-rule="evenodd"/><path d="M58 18c0 2.87-.6 5.59-1.67 8h-13.33c2.46-3.78 5-8.34 5-13 0-6-4.07-11.05-9.59-12.55 1.15-.3 2.35-.45 3.59-.45 8.83 0 16 8.05 16 18Zm-14-5a9 9 0 0 0-9-9c-6.66 0-9 8.5-9 14 0 9.94 7.16 18 16 18 4.73 0 8.99-2.32 11.92-6h-18.92l1.09-1.39c3.52-4.41 7.91-9.92 7.91-15.61Z" fill="#7859CF" fill-rule="evenodd"/><path d="M9.79 9.2h-7.94v16.8h7.94q2.77 0 4.9-1.04 1.51-.72 2.53-1.87.43-.49.78-1.05l.19-.32q.99-1.79.99-4.13 0-2.32-.98-4.1l-.2-.33q-.36-.58-.8-1.08-1.02-1.14-2.51-1.85-2.13-1.03-4.9-1.03Zm2.79 12.17q-1.2.83-2.98.83h-3v-9.21h3q1.78 0 2.98.83.26.18.49.39.29.28.52.6.79 1.11.79 2.78 0 1.69-.8 2.8-.22.32-.51.59-.23.21-.49.39Z" fill="#333" fill-rule="evenodd"/></svg>