<svg viewBox="0 0 170 36" fill="none" xmlns="http://www.w3.org/2000/svg"><path d="M147.13 17.24h-4.2v4.6q-.37.17-.76.29-.87.27-1.81.27-1.27 0-2.28-.51l-.19-.1q-.53-.3-.94-.71-.43-.44-.74-1l-.08-.14q-.52-1.05-.52-2.35 0-1.66.76-2.81.24-.36.56-.67.33-.34.72-.58 1.15-.74 2.76-.74.95 0 1.8.3 1.26.45 2.28 1.58l3.03-2.74q-.37-.43-.78-.8-1.02-.92-2.35-1.48-1.87-.79-4.22-.79-2.56 0-4.62 1.01l-.2.11q-1.32.68-2.28 1.7-.6.63-1.06 1.4-.27.46-.48.94-.72 1.63-.72 3.57 0 1.95.72 3.58.21.48.48.93.49.82 1.13 1.49.93.96 2.18 1.63l.39.19q1.96.92 4.36.92h.14q1.81-.02 3.61-.55 1.87-.55 3.31-1.58v-6.96Zm7.51 8.13q2.01.96 4.47.96 2.45 0 4.44-.96l.34-.17q1.31-.69 2.27-1.71.6-.64 1.07-1.41.33-.54.57-1.12.64-1.55.64-3.37t-.64-3.37q-.24-.58-.57-1.12-.47-.77-1.08-1.42-.96-1.01-2.26-1.69l-.37-.19q-1.98-.94-4.41-.94-2.44 0-4.43.94l-.36.19q-1.28.68-2.23 1.67-.63.65-1.11 1.44-.33.54-.57 1.12-.64 1.55-.64 3.37t.64 3.37q.24.58.57 1.12.48.78 1.09 1.43.96 1.01 2.25 1.69l.32.17Zm6.21-3.3q-.8.33-1.74.33-.92 0-1.72-.32-.3-.11-.59-.28-.36-.21-.67-.49-.57-.5-.96-1.2l-.01-.02q-.59-1.09-.59-2.5 0-1.39.58-2.47l.02-.03q.4-.73.99-1.24.3-.25.64-.45.3-.18.62-.3.79-.31 1.69-.31.92 0 1.71.32.31.12.59.29.36.2.66.47.58.5.97 1.22l.03.06q.57 1.07.57 2.44 0 1.39-.57 2.46l-.03.06q-.38.69-.94 1.19-.32.28-.69.5-.27.16-.56.27Z" fill="#333" fill-rule="evenodd"/><path d="M124 18c0 2.87-.6 5.59-1.67 8h-13.33c2.46-3.78 5-8.34 5-13 0-6-4.07-11.05-9.59-12.55 1.15-.3 2.35-.45 3.59-.45 8.83 0 16 8.05 16 18Zm-14-5a9 9 0 0 0-9-9c-6.66 0-9 8.5-9 14 0 9.94 7.16 18 16 18 4.73 0 8.99-2.32 11.92-6h-18.92l1.09-1.39c3.52-4.41 7.91-9.92 7.91-15.61Z" fill="#7859CF" fill-rule="evenodd"/><path d="M10.58 9.2h-7.94v16.8h7.94q2.77 0 4.9-1.04 1.51-.72 2.53-1.87.44-.49.78-1.05l.19-.32q.99-1.79.99-4.13 0-2.32-.98-4.1l-.2-.33q-.35-.58-.8-1.08-1.02-1.14-2.51-1.85-2.13-1.03-4.9-1.03Zm17.12 12.33h2.59l3.05 4.47h5.09l-3.63-5.28q1.28-.62 2.08-1.62.19-.24.35-.51.1-.14.18-.3.68-1.25.68-2.88 0-1.65-.7-2.93l-.21-.37q-.19-.29-.42-.55-.84-1.01-2.17-1.61-1.68-.75-3.97-.75h-7.67v16.8h4.75v-4.47Zm18.24-12.33h-4.75v16.8h4.75v-16.8Zm19.85 16.8v-16.8h-4.66v8.95l-7.42-8.95h-3.91v16.8h4.66v-8.96l7.42 8.96h3.91Zm8.54-4.21 1.78-1.89 4.8 6.1h5.52l-7.23-9.36 6.86-7.44h-5.22l-6.51 6.98v-6.98h-4.7v16.8h4.7v-4.21Zm-41.46-7.84q.42.58.42 1.46t-.41 1.45q-.14.2-.33.36-.75.64-2.21.64h-2.64v-4.92h2.64q1.46 0 2.21.65.18.16.32.36Zm-19.49 7.42q-1.21.83-2.98.83h-3v-9.21h3q1.77 0 2.98.83.25.18.48.39.29.28.52.6.79 1.11.79 2.78 0 1.69-.79 2.8-.23.32-.52.59-.23.21-.48.39Z" fill="#333" fill-rule="evenodd"/></svg>