<svg viewBox="0 0 20 16" fill="none" xmlns="http://www.w3.org/2000/svg"><path d="M13.67 13.52v-.02h1.35l-.03.21a2.67 2.67 0 0 1-2.64 2.29h-8.71a2.67 2.67 0 0 1-2.64-2.29l-.81-5.71-.19-1.34h4.55l-.22-2.68a3.68 3.68 0 0 1 7.28-.98h-1.37a2.35 2.35 0 0 0-4.58.87l.23 2.79h3.61v1.34h-3.45l.23 2.66h3.43l.02-.16h1.34l-.02.16h1.45v1.34h-1.56l-.22 2.66h1.63c.66 0 1.23-.49 1.32-1.14Zm-8.96-5.52h-3.18l.38 2.66h3.03l-.23-2.66Zm1.9 6.66-.22-2.66h3.21l-.22 2.66h-2.77Zm-1.56-2.66.22 2.66h-1.63c-.66 0-1.23-.49-1.32-1.14l-.22-1.52h2.95Zm10.74-2v-2.81h-2.79v-1.39h2.79v-2.8h1.41v2.8h2.8v1.39h-2.8v2.81h-1.41Z" fill="#FFF" fill-rule="evenodd"/></svg>