<svg viewBox="0 0 16 16" fill="none" xmlns="http://www.w3.org/2000/svg"><path d="m5.66 3.87.23 2.79h4.21l.23-2.79a2.34 2.34 0 0 0-2.33-2.54 2.34 2.34 0 0 0-2.34 2.54Zm5.78 2.79.22-2.68a3.67 3.67 0 1 0-7.33 0l.22 2.68h-4.55l.19 1.34.81 5.71a2.67 2.67 0 0 0 2.64 2.29h8.71c1.33 0 2.45-.98 2.64-2.29l.81-5.71.2-1.34h-4.56Zm-.11 1.34h-.05l-.23 2.66h3.03l.38-2.66h-3.13Zm-1.39 0h-3.89l.23 2.66h3.43l.23-2.66Zm-5.23 0h-3.18l.38 2.66h3.03l-.23-2.66Zm1.9 6.66-.22-2.66h3.21l-.22 2.66h-2.77Zm4.33-2.66-.22 2.66h1.63c.66 0 1.23-.49 1.32-1.14l.22-1.52h-2.95Zm-5.89 0 .22 2.66h-1.63c-.66 0-1.23-.49-1.32-1.14l-.22-1.52h2.95Z" fill="#333" fill-rule="evenodd"/></svg>