<svg viewBox="0 0 51.999 56" fill="none" xmlns="http://www.w3.org/2000/svg"><path d="M41.7 22.12c.77-6.57 1.5-12.78 7.29-18.12-26.49 0-34.15 8.12-37.99 14-8.55 13.03-.92 25.67.71 28.08l-2.75 5.51-1.96 3.97.88.44 1.98-4c.85-1.72 1.73-3.51 2.65-5.32 2.59.86 14.45 4.18 21.99-4.68 5.65-6.66 6.45-13.44 7.2-19.88Z" fill="#F0EBFF" fill-rule="evenodd"/><path d="M8.23 41.05c3.95-7.8 8.45-15.96 13.03-21.05l.74.65c-4.57 5.08-9.07 13.3-13.04 21.12a26.5 26.5 0 0 0 7.12 1.23c4.39.12 9.67-.96 13.65-5.65 5.46-6.43 6.23-12.95 6.99-19.41l.01-.13c.68-5.81 1.39-11.63 5.88-16.79-11.79.23-19.49 2.16-24.67 4.67a23.88 23.88 0 0 0-10.11 8.85 22.6 22.6 0 0 0-2.93 18.88 28.33 28.33 0 0 0 3.33 7.63Zm-.52 1.03c-1.63-2.41-9.26-15.05-.71-28.08 3.77-5.77 11.22-13.71 36.55-14h1.44c-.35.33-.69.66-1.02 1-4.86 5.12-5.55 10.96-6.27 17.12-.75 6.44-1.55 13.22-7.2 19.88-7.54 8.86-19.4 5.54-21.99 4.68-.92 1.81-1.8 3.6-2.65 5.32l-1.98 4-.88-.44 1.96-3.97 2.75-5.51Z" fill="#7859CF" fill-rule="evenodd"/></svg>