<svg viewBox="0 0 52 56" fill="none" xmlns="http://www.w3.org/2000/svg"><path d="M4 4h48l-4 44-20 8-20-8-4-44Z" fill="#F0EBFF"/><path d="M1 0h-1l.09 1 3.91 43 20 8 20-8 3.9-43 .1-1h-47Zm.09 1 .36 4h45.09l.36-4h-45.81Zm40.81 5h-35.81l.1 1.13-.5.04-.5.05-.11-1.22h-3.54l3.4 37.29 19.06 7.63 19.05-7.63 3.4-37.29h-3.54l-.11 1.22-.5-.05-.5-.04.1-1.13Zm-35.81 5.61-.5.05.39 4.44.5-.04.5-.05-.4-4.44-.49.04Zm.79 8.89-.5.04.4 4.45.49-.05.5-.04-.39-4.45-.5.05Zm.79 8.88-.5.05.4 4.44.5-.04.49-.05-.39-4.44-.5.04Zm.79 8.89-.5.04.2 2.22 1.98.81.19-.46.19-.46-1.42-.58-.14-1.62-.5.05Zm5.83 4.22-.19.47 3.96 1.61.19-.46.19-.46-3.96-1.62-.19.46Zm7.92 3.23-.19.47 1.98.81 1.97-.81-.18-.47-.19-.46-1.6.65-1.61-.65-.18.46Zm7.53-1.61.19.46 3.96-1.61-.19-.47-.19-.46-3.96 1.62.19.46Zm7.92-3.23.19.46 1.98-.81.2-2.22-.5-.04-.5-.05-.14 1.62-1.42.58.19.46Zm2.26-7.05.5.04.4-4.44-.5-.05-.5-.04-.39 4.44.49.05Zm.8-8.89.49.05.4-4.45-.5-.04-.5-.05-.39 4.45.5.04Zm.79-8.88.5.04.39-4.44-.5-.05-.49-.04-.4 4.44.5.05Z" fill="#7859CF" fill-rule="evenodd"/></svg>