<svg viewBox="0 0 12 16" fill="none" xmlns="http://www.w3.org/2000/svg"><path d="m11.21 5.75-5.24-3.26-5.19 3.26v-4.35l5.22-.57 5.21.57v4.35Zm0 .57-2.09 1.3-3.14-1.97-.01.57 2.69 1.68-.46.29-2.22-1.39-.01.58 1.75 1.09-.41.29-.01.01-1.32-.82-.01.57.87.54-.88.56-5.17-3.24 5.18-3.27 5.24 3.21Zm0 5.45-5.21 3.26-5.22-3.26v-4.75l5.19 3.25.01.59-3.56-2.23-.01.57 3.58 2.27.01.6-3.58-2.24v.58l3.58 2.26 3.6-2.27v-2.45l1.61-1.01v4.83Zm-5.21-11.77-6 .66v11.58l6 3.76 6-3.76v-11.58l-6-.66Z" fill="#593CAC"/></svg>