<svg viewBox="0 0 20 20" fill="none" xmlns="http://www.w3.org/2000/svg"><path d="M1.39 1.39c-1.39 1.42-1.39 3.68-1.39 8.21v.91c0 4.46 0 6.7 1.39 8.09 1.42 1.4 3.68 1.4 8.21 1.4h.91c4.45 0 6.7 0 8.09-1.4 1.4-1.42 1.4-3.68 1.4-8.21v-.91c0-4.45 0-6.7-1.4-8.09-1.42-1.39-3.68-1.39-8.21-1.39h-.91c-4.46 0-6.7-.01-8.09 1.39Zm8.62 8.8a3.03 3.03 0 1 0 0-6.04 3.03 3.03 0 0 0 0 6.04Zm0-4.28c.69 0 1.26.56 1.26 1.25s-.57 1.26-1.26 1.26c-.68 0-1.25-.57-1.25-1.26a1.24 1.24 0 0 1 1.25-1.25Zm1.22 6.77a5.76 5.76 0 0 0 1.76-.73.88.88 0 0 0 .27-1.23.87.87 0 0 0-1.23-.27 3.85 3.85 0 0 1-4.08 0 .9.9 0 0 0-1.24.27c-.23.42-.1.96.31 1.21.55.35 1.14.58 1.76.73l-1.68 1.68a.89.89 0 0 0 0 1.26c.18.18.39.25.63.25s.45-.09.63-.25l1.67-1.67 1.67 1.67a.89.89 0 1 0 1.25-1.26l-1.72-1.66Z" fill="#7859CF" fill-rule="evenodd"/></svg>