<svg viewBox="0 0 13 16" fill="none" xmlns="http://www.w3.org/2000/svg"><path d="M0 0h13v16h-13z"/><path d="M1.47 1.49c-1.07.6-1.65 1.74-1.43 2.82l.36 1.78c.93 3.12 2.5 5.77 4.82 8.11l1.41 1.19c.86.72 2.17.81 3.24.21l2.23-1.25c.87-.49 1.16-1.54.63-2.26l-1.94-2.61c-.52-.7-1.59-.82-2.37-.26l-1.37.99a5.22 5.22 0 0 1-2.18-3.66l1.57-.66c.89-.38 1.32-1.34.96-2.12l-1.37-2.93c-.38-.81-1.46-1.09-2.33-.6l-2.23 1.25Zm-.19 2.52c-.12-.59.19-1.21.78-1.54l2.23-1.25c.22-.12.49-.05.58.15l1.37 2.93c.09.2-.02.44-.24.53l-2.43 1.03.01.41a6.27 6.27 0 0 0 3.07 5.16l.36.22 2.13-1.53c.2-.14.47-.11.6.07l1.93 2.61c.13.18.06.44-.16.56l-2.23 1.25c-.58.33-1.3.28-1.76-.11l-1.41-1.19a20.89 20.89 0 0 1-4.47-7.52l-.36-1.78Z" fill="#7859CF" fill-rule="evenodd"/></svg>