<svg viewBox="0 0 22 22" fill="none" xmlns="http://www.w3.org/2000/svg"><path d="M0 0h22v22h-22z"/><path d="M11 0a11 11 0 0 0-4.01 21.24c-.1-.87-.19-2.21.03-3.16l1.29-5.46s-.32-.66-.32-1.64c0-1.53.88-2.67 1.99-2.67.93 0 1.39.71 1.39 1.55 0 .94-.6 2.36-.91 3.66-.26 1.1.55 1.99 1.63 1.99 1.95 0 3.45-2.06 3.45-5.04 0-2.63-1.89-4.47-4.59-4.47a4.76 4.76 0 0 0-4.97 4.77c0 .95.37 1.96.82 2.51.09.11.1.21.08.32l-.31 1.24c-.05.21-.16.25-.37.15-1.37-.64-2.23-2.65-2.23-4.26 0-3.47 2.52-6.66 7.27-6.66 3.81 0 6.78 2.72 6.78 6.36 0 3.79-2.39 6.84-5.71 6.84-1.11 0-2.16-.58-2.52-1.26l-.68 2.61c-.25.96-.92 2.15-1.37 2.88a11 11 0 1 0 3.26-21.5Z" fill="#7859CF"/></svg>