<svg viewBox="0 0 52 56" fill="none" xmlns="http://www.w3.org/2000/svg"><path d="M24 4h8v3h-3v3.02c3.81.16 7.38 1.25 10.5 3.05 1.85-1.93 6.25.17 4.76 3.66l-.1-.1a23 23 0 1 1-32.43.1c-2.03-3.03 2.58-6.15 4.76-3.66a22.88 22.88 0 0 1 10.51-3.05v-3.02h-3v-3Z" fill="#F0EBFF" fill-rule="evenodd"/><path d="M27 1h-6v1h6v-1Zm-2 2h3v-3h-8v3h3v3.02a22.73 22.73 0 0 0-9.61 2.56l-.14-.16c-1.54-1.77-3.86-1.44-5.3-.4a4.1 4.1 0 0 0-1.6 2.25c-.26.97-.11 2.03.55 3.02l.12.18a23 23 0 1 0 33.99.05l.17-.4c.46-1.08.49-2.12.17-3.04-.32-.9-.95-1.6-1.69-2.06-1.41-.88-3.53-1.05-4.89.37l-.18.19a22.68 22.68 0 0 0-9.59-2.56v-3.02Zm-1 4c-3.86 0-7.49.99-10.65 2.73l-.35.21a21.99 21.99 0 0 0 11 41.06 22 22 0 0 0 15.55-37.56l-.38-.37a22.4 22.4 0 0 0-4.17-3.13l-.37-.21a21.94 21.94 0 0 0-10.63-2.73Zm-11.51 2.07a23.7 23.7 0 0 0-4.12 3.04l-.64.62a2.76 2.76 0 0 1-.43-.97c-.55-2.32 2.31-4.32 4.34-3.34.31.15.6.36.85.65Zm23.01 0a23.1 23.1 0 0 1 4.31 3.23l.45.43c.17-.39.26-.76.29-1.11.21-2.34-2.31-3.74-4.1-3.14a2.3 2.3 0 0 0-.95.59Zm-11.5 21.93a2 2 0 0 0 .86-3.81l-.91-.19a2 2 0 0 0 .05 4Zm-.64-4.94-1.35-4.93-.04-.15.05-.14 1.5-4.5.48-1.43.47 1.43 1.5 4.5.05.14-.04.15-1.35 4.93.38.11 7.55-13.42.87.49-7.55 13.42a3 3 0 1 1-2.52-.6Zm-.34-5.05.98 3.58.97-3.58-.97-2.93-.98 2.93Z" fill="#7859CF" fill-rule="evenodd"/></svg>