<svg viewBox="0 0 20 20" fill="none" xmlns="http://www.w3.org/2000/svg"><path d="M0 0h20v20h-20z"/><path d="M1.4 1.4c-1.4 1.41-1.4 3.67-1.4 8.2v.79c0 4.53 0 6.79 1.4 8.2 1.41 1.41 3.67 1.41 8.2 1.41h.79c4.53 0 6.79 0 8.2-1.41 1.41-1.41 1.41-3.67 1.41-8.2v-.79c0-4.53 0-6.79-1.41-8.2-1.41-1.4-3.67-1.4-8.2-1.4h-.79c-4.53 0-6.79 0-8.2 1.4Zm1.97 4.68c.11 5.2 2.71 8.32 7.27 8.32h.25v-2.97a4.13 4.13 0 0 1 3.46 2.97h2.36a6.6 6.6 0 0 0-3.42-4.17 6.4 6.4 0 0 0 2.92-4.15h-2.15c-.46 1.65-1.85 3.15-3.17 3.29v-3.29h-2.14v5.77c-1.34-.34-3.02-1.95-3.1-5.77h-2.28Z" fill="#7859CF" fill-rule="evenodd"/></svg>